<svg id="SignoYA" xmlns="http://www.w3.org/2000/svg" xmlns:xlink="http://www.w3.org/1999/xlink" viewBox="0 0 151.57 41.8">
  <defs>
    <style>
      .cls-1 {
        fill: url(#linear-gradient);
      }
    </style>
    <linearGradient id="linear-gradient" y1="20.9" x2="151.57" y2="20.9" gradientUnits="userSpaceOnUse">
      <stop offset="0" stop-color="#404080"/>
      <stop offset="1" stop-color="#804040"/>
    </linearGradient>
  </defs>
  <title>signoya-logo</title>
  <path class="cls-1" d="M18.29,7.39a3.08,3.08,0,0,0-.62-1.66A5.61,5.61,0,0,0,16.1,4.32a8.46,8.46,0,0,0-2.28-1A10.17,10.17,0,0,0,11.09,3a10.62,10.62,0,0,0-2.81.36A8,8,0,0,0,6,4.32,5.25,5.25,0,0,0,4.46,5.81a3.23,3.23,0,0,0-.58,1.82,2.55,2.55,0,0,0,.72,1.75,6.61,6.61,0,0,0,1.8,1.37,13.15,13.15,0,0,0,2.33,1,14.29,14.29,0,0,0,2.35.53,15.36,15.36,0,0,1,4.15,1,12.77,12.77,0,0,1,3.38,2,8.84,8.84,0,0,1,2.26,2.81,7.59,7.59,0,0,1,.82,3.48,8.1,8.1,0,0,1-.84,3.62,9,9,0,0,1-2.33,3,11.94,11.94,0,0,1-7.68,2.74,12.2,12.2,0,0,1-4.22-.72,11.15,11.15,0,0,1-3.46-2,9.35,9.35,0,0,1-2.33-3A7.93,7.93,0,0,1,0,21.6a1.34,1.34,0,0,1,.41-1,1.34,1.34,0,0,1,1-.41,1.34,1.34,0,0,1,1,.41,1.34,1.34,0,0,1,.41,1,5.29,5.29,0,0,0,.62,2.52,6.47,6.47,0,0,0,1.7,2,8.4,8.4,0,0,0,2.54,1.37,9.59,9.59,0,0,0,3.14.5,9.81,9.81,0,0,0,3.17-.5,9,9,0,0,0,2.62-1.37,6.25,6.25,0,0,0,1.75-2,4.58,4.58,0,0,0,.53-2.52,5.09,5.09,0,0,0-.77-2.33,7.55,7.55,0,0,0-1.73-1.92A9.72,9.72,0,0,0,13.94,16a13.28,13.28,0,0,0-2.86-.79,15.48,15.48,0,0,1-3.86-.77A12.48,12.48,0,0,1,4,12.79a8.21,8.21,0,0,1-2.23-2.3,5.3,5.3,0,0,1-.84-2.9,5.79,5.79,0,0,1,.79-3,7.94,7.94,0,0,1,2.18-2.4A11.22,11.22,0,0,1,7.13.6a12.76,12.76,0,0,1,4-.6,12.77,12.77,0,0,1,4,.6,11.23,11.23,0,0,1,3.24,1.63,7.94,7.94,0,0,1,2.18,2.4,5.79,5.79,0,0,1,.79,3,1.48,1.48,0,0,1-1.49,1.49,1.32,1.32,0,0,1-1-.46A2,2,0,0,1,18.29,7.39Zm5.61-5A1.9,1.9,0,0,1,24.47,1a2,2,0,0,1,2.78,0,1.9,1.9,0,0,1,.58,1.39,1.9,1.9,0,0,1-.58,1.39,2,2,0,0,1-2.78,0A1.9,1.9,0,0,1,23.9,2.4ZM24.38,9a1.49,1.49,0,1,1,3,0V29.38a1.49,1.49,0,1,1-3,0ZM38.62,39.46a3.09,3.09,0,0,0-1.3.48A3.19,3.19,0,0,0,36.22,41a1.49,1.49,0,0,1-.86.72,1.6,1.6,0,0,1-1.15,0,1.39,1.39,0,0,1-.7-.86,1.54,1.54,0,0,1,.07-1.1,5.63,5.63,0,0,1,2-2.28,5.36,5.36,0,0,1,3-.89H45a4.94,4.94,0,0,0,4.58-6.79,4.68,4.68,0,0,0-1-1.56A12.37,12.37,0,0,1,45.15,30a11.3,11.3,0,0,1-3.94.67,11.59,11.59,0,0,1-8.16-3.26,11.19,11.19,0,0,1-2.5-3.65,11.5,11.5,0,0,1-.91-4.61A11.4,11.4,0,0,1,33,11.06a12,12,0,0,1,3.7-2.5,12.65,12.65,0,0,1,4.63-1,10.62,10.62,0,0,1,4.39.94,12.1,12.1,0,0,1,6.19,6.22,11,11,0,0,1,.94,4.51,11.22,11.22,0,0,1-2.3,6.86,8.06,8.06,0,0,1,1.68,2.47,7.76,7.76,0,0,1,0,6.1,8.38,8.38,0,0,1-1.68,2.5,7.78,7.78,0,0,1-2.5,1.7,7.65,7.65,0,0,1-3.07.62Zm-6-20.26a8.33,8.33,0,0,0,.67,3.34,8.67,8.67,0,0,0,4.58,4.58,8.33,8.33,0,0,0,3.34.67,8.5,8.5,0,0,0,3.36-.67,8.61,8.61,0,0,0,4.61-4.58,8.34,8.34,0,0,0,.67-3.34,8.52,8.52,0,0,0-.67-3.36,8.55,8.55,0,0,0-4.61-4.61,8.52,8.52,0,0,0-3.36-.67,8.34,8.34,0,0,0-3.34.67,8.61,8.61,0,0,0-4.58,4.61A8.5,8.5,0,0,0,32.62,19.2Zm22.65-.1a11.25,11.25,0,0,1,.91-4.51,11.54,11.54,0,0,1,6.14-6.14,11.62,11.62,0,0,1,9,0,11.55,11.55,0,0,1,6.14,6.14,11.27,11.27,0,0,1,.91,4.51V29.38a1.49,1.49,0,1,1-3,0V19.1a8.35,8.35,0,0,0-.67-3.34,8.68,8.68,0,0,0-4.58-4.58,8.62,8.62,0,0,0-6.67,0,8.68,8.68,0,0,0-4.58,4.58,8.33,8.33,0,0,0-.67,3.34V29.38a1.49,1.49,0,1,1-3,0Zm37-11.47a10.62,10.62,0,0,1,4.39.94,12.1,12.1,0,0,1,6.19,6.22,11.3,11.3,0,0,1,0,9,12.08,12.08,0,0,1-2.47,3.67,11.45,11.45,0,0,1-8.23,3.41A11.6,11.6,0,0,1,84,27.55a11.2,11.2,0,0,1-2.5-3.65,11.49,11.49,0,0,1-.91-4.61,11.4,11.4,0,0,1,3.34-8.14,12,12,0,0,1,3.7-2.5A12.65,12.65,0,0,1,92.24,7.63ZM83.55,19.3a8.33,8.33,0,0,0,.67,3.34,8.68,8.68,0,0,0,4.58,4.58,8.34,8.34,0,0,0,3.34.67,8.51,8.51,0,0,0,3.36-.67,8.61,8.61,0,0,0,2.76-1.85,8.71,8.71,0,0,0,1.85-2.74,8.34,8.34,0,0,0,.67-3.34,8.52,8.52,0,0,0-.67-3.36,8.56,8.56,0,0,0-4.61-4.61,8.52,8.52,0,0,0-3.36-.67,8.34,8.34,0,0,0-3.34.67,8.71,8.71,0,0,0-2.74,1.85,8.62,8.62,0,0,0-1.85,2.76A8.5,8.5,0,0,0,83.55,19.3Zm29.83-.48L100.7,2.45a1.48,1.48,0,0,1-.34-1.08,1.35,1.35,0,0,1,.53-1A1.48,1.48,0,0,1,102,0a1.36,1.36,0,0,1,1,.53l11.9,15.31L127,.58A1.35,1.35,0,0,1,128,0a1.48,1.48,0,0,1,1.08.34,1.35,1.35,0,0,1,.53,1,1.49,1.49,0,0,1-.34,1.08L116.35,18.82V29.38a1.49,1.49,0,1,1-3,0Zm38.07,10a1.38,1.38,0,0,1,0,1.13,1.47,1.47,0,0,1-.82.79,1.32,1.32,0,0,1-1.13,0,1.58,1.58,0,0,1-.79-.79l-1.92-4.42H130.38L128.5,30a1.59,1.59,0,0,1-.79.79,1.32,1.32,0,0,1-1.13,0,1.46,1.46,0,0,1-.82-.79,1.38,1.38,0,0,1,0-1.13l11.47-27.7a2,2,0,0,1,.53-.74,1.23,1.23,0,0,1,.86-.36,1.28,1.28,0,0,1,.86.34,2.22,2.22,0,0,1,.58.77Zm-19.82-6.29h14l-7-16.94Z"/>
</svg>
